<svg width="127" height="33" viewBox="0 0 127 33" fill="none" xmlns="http://www.w3.org/2000/svg">
<g clip-path="url(#clip0_1986_27954)">
<path d="M126.437 20.5786V20.7868C126.293 23.956 125.187 26.4984 123.132 28.3433C119.509 31.6062 114.178 31.3313 112.794 31.3146H112.525V16.5411H112.942C115.53 16.5224 118.541 16.2913 119.043 22.7483L119.057 22.9399H119.553V9.4886H119.063L119.043 9.67392C118.38 15.7999 115.295 15.7749 112.765 15.7811H112.525V1.70102C112.858 1.70102 113.404 1.70102 113.739 1.69061C118.495 1.61565 123.207 1.1284 125.212 11.246L125.246 11.4126H125.752V0.916016H98.4201V1.63855H100.84V23.7894C100.781 26.9711 99.5362 28.9242 98.443 29.9591C97.1305 31.1806 95.3944 31.8437 93.6018 31.8081C87.4342 31.5853 87.2614 25.3803 87.2572 25.1137V1.63855H90.0661V1.2221V0.916016H79.1406V1.63855H82.037V22.5193C82.037 28.2288 84.9376 32.6327 93.4081 32.6327C99.0885 32.6327 101.695 27.9143 101.637 24.0018V1.63855H104.196H107.257V31.2959H104.5V32.0413H127.001V20.589L126.437 20.5786Z" fill="#231F20"/>
<path d="M69.5323 18.7214V19.446H72.0476V25.9385C72.0476 30.7859 68.8306 31.8624 66.309 31.9124C63.5875 31.9561 61.7634 30.6235 60.7307 27.8562C59.7124 25.1493 59.1752 22.5527 59.1752 16.4872C59.1752 14.3258 59.5084 7.2462 61.1034 4.14782C61.7093 2.97969 62.8379 0.816238 66.2028 0.816238H66.234C70.336 0.832896 72.689 3.67307 74.6046 11.2878L74.6442 11.4461H75.1085V0H74.6629L74.6088 0.129099C74.1715 1.17022 73.1283 1.40343 72.2288 1.37844C71.8558 1.36197 71.4847 1.31602 71.1189 1.24102C70.8649 1.18479 70.7025 1.13274 70.7025 1.13066C70.3069 1.00572 69.9571 0.887034 69.6364 0.778758C69.4906 0.730866 69.347 0.687139 69.2075 0.647577C68.1663 0.304007 67.4001 0.0853718 66.2028 0.0853718C60.8035 0.0895363 53.3887 5.56999 53.3887 16.8745C53.3887 26.1092 58.9337 32.6329 66.5068 32.6329C67.9165 32.6329 69.0804 32.1706 70.1757 31.6625C70.3839 31.5793 70.5817 31.4939 70.7733 31.4023C71.8436 30.8942 72.8555 30.4132 74.0008 30.3611H74.1382H74.2319C74.8941 30.3611 76.2184 30.7901 76.4724 32.0582L76.5057 32.2247H76.9492V19.446H79.3313V18.7214H69.5323Z" fill="#231F20"/>
<path d="M37.3234 0.160156C30.9268 0.160156 23.918 6.55263 23.918 16.3121C23.918 26.0716 31.1579 32.5536 37.3234 32.5536C43.4889 32.5536 50.731 26.0757 50.731 16.3121C50.731 6.54847 43.7201 0.160156 37.3234 0.160156ZM44.7987 15.1127C44.7987 15.1835 44.7987 15.2543 44.7987 15.3209C44.7987 15.3876 44.7987 15.4251 44.7987 15.475C44.7987 15.525 44.7987 15.5562 44.7987 15.5958C44.7987 15.6354 44.7987 15.7228 44.7987 15.7832V15.8498C44.7987 15.9165 44.7987 15.9789 44.7987 16.0393V16.3038V16.4766C44.7987 18.2798 44.6383 25.2616 42.8101 28.741C41.769 30.7566 39.7409 31.8227 37.3089 31.8227C34.8768 31.8227 32.8404 30.7566 31.8097 28.7389C29.9815 25.2616 29.8295 18.2798 29.8211 16.4766V16.3038V16.0581C29.8211 15.9977 29.8211 15.9352 29.8211 15.8686V15.7957C29.8211 15.7353 29.8211 15.6728 29.8211 15.6083C29.8211 15.5437 29.8211 15.5271 29.8211 15.4875C29.8211 15.448 29.8211 15.3855 29.8211 15.3334C29.8211 15.2814 29.8211 15.1939 29.8211 15.1252C29.8211 15.1002 29.8211 15.0752 29.8211 15.0503C29.8919 12.2684 30.2376 7.04196 31.7951 3.97066C33.0444 1.42616 35.5743 0.893105 37.2922 0.893105C39.01 0.893105 41.5337 1.42616 42.7935 3.97274C44.3489 7.04196 44.6946 12.2684 44.7654 15.0503C44.7966 15.0628 44.7987 15.0877 44.7987 15.1127V15.1127Z" fill="#231F20"/>
<path d="M26.3986 0.919922H20.6808H20.4726V1.63413H23.0192L16.2269 24.3618L8.02495 1.63413H8.17071H10.3529V1.21768H10.355V0.919922H10.3529H0V1.21768V1.63413H2.69858H2.99843L14.4882 32.2097H14.6527L23.8042 1.63413H24.0749H26.6069V0.919922H26.3986Z" fill="#231F20"/>
</g>
<defs>
<clipPath id="clip0_1986_27954">
<rect width="127" height="32.6329" fill="white"/>
</clipPath>
</defs>
</svg>
